<?xml version="1.0" encoding="utf-8"?>
<!-- Generator: Adobe Illustrator 24.2.3, SVG Export Plug-In . SVG Version: 6.00 Build 0)  -->
<svg version="1.1" id="Layer_1" xmlns="http://www.w3.org/2000/svg" xmlns:xlink="http://www.w3.org/1999/xlink" x="0px" y="0px"
	 viewBox="0 0 40 40" style="enable-background:new 0 0 40 40;" xml:space="preserve">
<style type="text/css">
	.st0{fill:none;}
	.st1{fill:none;stroke:#000000;stroke-width:2;}
</style>
<rect class="st0" width="40" height="40"/>
<g transform="translate(-36.229 514.673)">
	<path class="st0" d="M40.2-514.7l7,10l11-10H40.2z"/>
	<path d="M44.1-512.7l3.5,5l5.5-5H44.1 M40.2-514.7h18l-11,10L40.2-514.7z"/>
</g>
<g transform="translate(-21.229 514.673)">
	<path class="st0" d="M58.2-514.7l-7,10l-11-10H58.2z"/>
	<path d="M45.4-512.7l5.5,5l3.5-5H45.4 M40.2-514.7h18l-7,10L40.2-514.7z"/>
</g>
<g transform="translate(-137.032 526.703)">
	<path class="st0" d="M154.7-517.7h5.7l3.6,25.3l-7,5.7l-7-5.7L154.7-517.7z"/>
	<path d="M156.4-515.7l-4.2,22.5l4.9,3.9l4.8-4l-3.2-22.4H156.4 M154.7-517.7h5.7l3.6,25.3l-7,5.7l-7-5.7L154.7-517.7z"/>
</g>
<path class="st1" d="M14.5,5l3.8,5h4.1l3.9-5"/>
</svg>
