<svg id="ic_system" xmlns="http://www.w3.org/2000/svg" width="40.001" height="40" viewBox="0 0 40.001 40">
  <rect id="Guide" width="40" height="40" fill="none" opacity="0.3"/>
  <g id="타원_2" data-name="타원 2" transform="translate(4 4)" fill="#fff" stroke="#000" stroke-width="2">
    <ellipse cx="16" cy="16" rx="16" ry="16" stroke="none"/>
    <ellipse cx="16" cy="16" rx="15" ry="15" fill="none"/>
  </g>
  <g id="사각형_6" data-name="사각형 6" transform="translate(14.667)" fill="#fff" stroke="#000" stroke-width="2">
    <rect width="10.667" height="40" stroke="none"/>
    <rect x="1" y="1" width="8.667" height="38" fill="none"/>
  </g>
  <g id="사각형_718" data-name="사각형 718" transform="translate(40.001 14.667) rotate(90)" fill="#fff" stroke="#000" stroke-width="2">
    <rect width="10.667" height="40.001" stroke="none"/>
    <rect x="1" y="1" width="8.667" height="38.001" fill="none"/>
  </g>
  <g id="사각형_720" data-name="사각형 720" transform="translate(37.914 30.371) rotate(135)" fill="#fff" stroke="#000" stroke-width="2">
    <rect width="10.667" height="40" stroke="none"/>
    <rect x="1" y="1" width="8.667" height="38" fill="none"/>
  </g>
  <g id="사각형_719" data-name="사각형 719" transform="translate(30.372 2.086) rotate(45)" fill="#fff" stroke="#000" stroke-width="2">
    <rect width="10.667" height="40" stroke="none"/>
    <rect x="1" y="1" width="8.667" height="38" fill="none"/>
  </g>
  <ellipse id="타원_160" data-name="타원 160" cx="14" cy="14" rx="14" ry="14" transform="translate(6 6)" fill="#fff"/>
  <g id="타원_158" data-name="타원 158" transform="translate(12.667 12.667)" fill="none" stroke="#000" stroke-width="2">
    <ellipse cx="7.333" cy="7.333" rx="7.333" ry="7.333" stroke="none"/>
    <ellipse cx="7.333" cy="7.333" rx="6.333" ry="6.333" fill="none"/>
  </g>
</svg>
