<svg xmlns="http://www.w3.org/2000/svg" width="108.878" height="14.286" viewBox="0 0 108.878 14.286">
  <path id="img_footer_logo" d="M67.886-111.716c-2.649,0-4.5-1.608-4.5-4.128a4.307,4.307,0,0,1,2.3-3.674l.113-.076-.082-.108a4.258,4.258,0,0,1-1.032-2.583,3.591,3.591,0,0,1,1.172-2.592,3.587,3.587,0,0,1,2.688-.927,3.4,3.4,0,0,1,2.465.92,3.405,3.405,0,0,1,1.074,2.4,3.942,3.942,0,0,1-2.119,3.346l-.328.194,1.845,2.146c.113-.184.2-.32.213-.338.137-.2.618-.954.782-1.272h2.629a23.238,23.238,0,0,1-1.811,3.13,3.394,3.394,0,0,1-.229.291l2.74,3.1H72.592l-1.079-1.23c-.048.049-.148.151-.208.2a5.049,5.049,0,0,1-3.27,1.2Zm-.595-6.065c-.762.4-1.507,1-1.507,1.858a1.95,1.95,0,0,0,.661,1.439,1.956,1.956,0,0,0,1.511.477,2.83,2.83,0,0,0,1.921-.972c.008-.006-2.5-2.85-2.5-2.85Zm.158-5.57a1.387,1.387,0,0,0-.46.989,2.146,2.146,0,0,0,.934,1.692l.1.087a3.05,3.05,0,0,0,.285-.134c.954-.506,1.538-.937,1.538-1.757a1.322,1.322,0,0,0-1.364-1.226q-.056,0-.112,0A1.381,1.381,0,0,0,67.449-123.351ZM39.1-111.731v-7.709l-3.3,7.411H34.428l-3.3-7.411v7.709H28.35v-14.117h2.858l3.907,9.069,3.909-9.069H41.87v14.117Zm-15.949,0v-14.115h2.776v14.115Zm-11.562,0v-11.525H1.566v3.138h7.3v2.639h-7.3v3.117H9.31v2.627H-1.209v-14.1H14.363V-114.4h6.959v2.667Zm-16.7,0-1.292-2.907h-6.508l-1.308,2.907h-2.948l.433-.942,6-13.261h2.218l.172.392L-2.1-111.731Zm-6.623-5.545H-7.58l-2.074-4.682ZM-29-111.734v-14.114h5.549c4.323,0,7.457,2.955,7.456,7.014,0,4.117-3.134,7.1-7.456,7.1Zm2.774-2.666h2.776v0a4.3,4.3,0,0,0,3.273-1.157,4.3,4.3,0,0,0,1.352-3.2,4.338,4.338,0,0,0-1.334-3.237,4.337,4.337,0,0,0-3.291-1.2h-2.776ZM77.1-111.883V-126h2.774v14.117Zm-27.52,0V-126H54.69c4.325,0,7.46,2.963,7.46,7.026,0,4.109-3.136,7.091-7.46,7.091Zm2.777-2.668H54.69a4.3,4.3,0,0,0,3.274-1.153,4.3,4.3,0,0,0,1.355-3.2,4.334,4.334,0,0,0-1.336-3.237,4.333,4.333,0,0,0-3.293-1.192H52.361Z" transform="translate(29 126)" fill="#b6bcc8"/>
</svg>
