<?xml version="1.0" encoding="utf-8"?>
<!-- Generator: Adobe Illustrator 24.2.3, SVG Export Plug-In . SVG Version: 6.00 Build 0)  -->
<svg version="1.1" id="ic_location" xmlns="http://www.w3.org/2000/svg" xmlns:xlink="http://www.w3.org/1999/xlink" x="0px"
	 y="0px" viewBox="0 0 40 40" style="enable-background:new 0 0 40 40;" xml:space="preserve">
<style type="text/css">
	.st0{fill:none;}
	.st1{fill:#FFFFFF;}
	.st2{fill:none;stroke:#000000;stroke-width:2;}
</style>
<path id="Guide" class="st0" d="M0,0h40v40H0V0z"/>
<g id="패스_178">
	<path class="st0" d="M4.1,27h31.7L40,40H0L4.1,27z"/>
	<path d="M5.6,29l-2.9,9h34.5l-2.9-9H5.6 M4.1,27h31.7L40,40H0L4.1,27z"/>
</g>
<g id="패스_179">
	<path class="st1" d="M19.8,32.7c-1-0.9-3.2-2.8-5.4-5.2c-1.8-2-3.2-4-4.2-5.9c-1.3-2.4-2-4.6-2.1-6.7C7.8,10.6,8.9,7,11.2,4.5
		C13.4,2.3,16.4,1,19.9,1c3.5,0,6.9,1.6,9.2,4.2c1.1,1.2,1.9,2.7,2.4,4.2c0.5,1.7,0.7,3.5,0.4,5.4C31,22.1,22.2,30.5,19.8,32.7
		L19.8,32.7z"/>
	<path d="M19.9,2c-3.2,0-6,1.1-7.9,3.2C9.8,7.5,8.8,10.8,9,14.8c0.3,4.5,3.5,9,6.1,12c1.8,2,3.5,3.6,4.7,4.6c1.1-1,2.9-2.8,4.6-4.9
		c3.8-4.5,6.1-8.6,6.5-11.8c0.2-1.7,0.1-3.4-0.4-5c-0.4-1.4-1.2-2.7-2.2-3.9C26.2,3.4,23,2,19.9,2 M19.9,0C27,0,34,6,32.9,14.9
		c-1.1,8.9-13,19.1-13,19.1S7.7,24.7,7,14.9C6.4,5.1,12.7,0,19.9,0z"/>
</g>
<g id="타원_114" transform="translate(15 9)">
	<circle class="st0" cx="5" cy="5" r="5"/>
	<circle class="st2" cx="5" cy="5" r="4"/>
</g>
</svg>
