<svg xmlns="http://www.w3.org/2000/svg" xmlns:xlink="http://www.w3.org/1999/xlink" width="40" height="40" viewBox="0 0 40 40"><defs><clipPath id="a"><rect width="40" height="40" transform="translate(42 1690)" fill="red" opacity="0.3"/></clipPath></defs><g transform="translate(-42 -1690)" clip-path="url(#a)"><path d="M6.923,35.456V20.58A10.872,10.872,0,0,1,0,10.564,10.5,10.5,0,0,1,2.466,3.782,11.345,11.345,0,0,1,8.655,0V9.727h5.19V0a11.355,11.355,0,0,1,6.188,3.781A10.5,10.5,0,0,1,22.5,10.564,10.873,10.873,0,0,1,15.577,20.58V35.456a4.327,4.327,0,0,1-8.654,0Z" transform="translate(67.63 1688.5) rotate(45)" fill="#fff" stroke="#000" stroke-linecap="round" stroke-linejoin="round" stroke-width="2"/></g></svg>