<svg xmlns="http://www.w3.org/2000/svg" width="70.878" height="30.222" viewBox="0 0 70.878 30.222">
  <path id="img_logo" d="M-968.114-642.781c-2.65,0-4.5-1.608-4.5-4.128a4.307,4.307,0,0,1,2.3-3.674l.113-.077-.082-.108a4.253,4.253,0,0,1-1.032-2.583,3.592,3.592,0,0,1,1.171-2.591,3.594,3.594,0,0,1,2.689-.928,3.409,3.409,0,0,1,2.465.921,3.405,3.405,0,0,1,1.074,2.4,3.939,3.939,0,0,1-2.119,3.345l-.328.2,1.845,2.146c.113-.183.2-.319.213-.338.137-.2.618-.954.782-1.272h2.629a23.219,23.219,0,0,1-1.811,3.129,3.263,3.263,0,0,1-.229.292l2.74,3.1h-3.213l-1.079-1.231c-.049.049-.148.152-.208.2a5.051,5.051,0,0,1-3.27,1.2Zm-.595-6.065c-.762.4-1.507,1-1.507,1.858a1.952,1.952,0,0,0,.661,1.44,1.95,1.95,0,0,0,1.511.476,2.822,2.822,0,0,0,1.921-.972c.008-.005-2.5-2.849-2.5-2.849Zm.158-5.57a1.383,1.383,0,0,0-.46.989,2.145,2.145,0,0,0,.934,1.692l.1.087a3.05,3.05,0,0,0,.285-.134c.954-.506,1.538-.937,1.538-1.757a1.323,1.323,0,0,0-1.364-1.227q-.055,0-.109,0A1.384,1.384,0,0,0-968.551-654.416Zm9.655,11.468v-14.117h2.774v14.117Zm-27.52,0v-14.117h5.107c4.325,0,7.459,2.963,7.459,7.025,0,4.11-3.135,7.091-7.459,7.091Zm2.777-2.667h2.329a4.3,4.3,0,0,0,3.274-1.153,4.3,4.3,0,0,0,1.355-3.2,4.333,4.333,0,0,0-1.336-3.237,4.333,4.333,0,0,0-3.293-1.193h-2.329ZM-958.9-658.8v-7.709l-3.3,7.411h-1.368l-3.3-7.411v7.709h-2.778v-14.117h2.858l3.907,9.069,3.909-9.069h2.846V-658.8Zm-15.95,0v-14.115h2.776V-658.8Zm-11.561,0v-11.525h-10.019v3.138h7.3v2.639h-7.3v3.117h7.745v2.627h-10.519v-14.1h15.572v11.437h6.959v2.667Zm-16.7,0-1.292-2.907h-6.508l-1.307,2.907h-2.948l.433-.942,6-13.262h2.218l.172.392,6.251,13.812Zm-6.622-5.545h4.161l-2.073-4.682ZM-1027-658.8v-14.114h5.55c4.322,0,7.456,2.955,7.455,7.014,0,4.117-3.134,7.1-7.455,7.1Zm2.774-2.666h2.776v0a4.3,4.3,0,0,0,3.272-1.156,4.3,4.3,0,0,0,1.352-3.2,4.334,4.334,0,0,0-1.334-3.237,4.34,4.34,0,0,0-3.29-1.2h-2.776Z" transform="translate(1027 673)"/>
</svg>
