<svg xmlns="http://www.w3.org/2000/svg" width="30" height="30" viewBox="0 0 30 30">
  <path id="ico_system" d="M-4418.5,1626v-3.1l1.336-.47a9.781,9.781,0,0,0,.973-.4l1.277-.612,1,1,1.19,1.19,2.828-2.827-1.19-1.19-1-1,.612-1.278a9.922,9.922,0,0,0,.407-.98l.473-1.33h3.094v-4h-3.1l-.47-1.334a10.2,10.2,0,0,0-.407-.978l-.608-1.276,1-1,1.19-1.19-2.829-2.828-1.19,1.19-1,1-1.277-.611a9.645,9.645,0,0,0-.973-.4l-1.337-.47V1600h-4v3.1l-1.333.472a9.958,9.958,0,0,0-.978.406l-1.277.611-1-1-1.19-1.19-2.828,2.828,1.19,1.19,1,1-.613,1.278a10.171,10.171,0,0,0-.407.977l-.472,1.33h-3.094v4h3.094l.473,1.33a10.033,10.033,0,0,0,.407.98l.611,1.277-1,1-1.19,1.19,2.828,2.828,1.19-1.19,1-1,1.277.613a10.046,10.046,0,0,0,.977.405l1.332.473V1626h4m-2-19a6.007,6.007,0,0,1,6,6,6.007,6.007,0,0,1-6,6,6.007,6.007,0,0,1-6-6,6.007,6.007,0,0,1,6-6m4,21h-8v-3.682a12.239,12.239,0,0,1-1.173-.488l-2.6,2.6-5.657-5.656,2.6-2.6a12.166,12.166,0,0,1-.488-1.174h-3.682v-8h3.682a12.14,12.14,0,0,1,.488-1.173l-2.6-2.6,5.657-5.657,2.6,2.6a12.109,12.109,0,0,1,1.174-.488V1598h8v3.683a11.814,11.814,0,0,1,1.174.487l2.6-2.6,5.658,5.657-2.6,2.6a11.828,11.828,0,0,1,.486,1.173h3.683v8h-3.683a12.2,12.2,0,0,1-.487,1.174l2.606,2.6-5.658,5.656-2.6-2.6a11.687,11.687,0,0,1-1.174.486Zm-4-19a4,4,0,0,0-4,4,4,4,0,0,0,4,4,4,4,0,0,0,4-4A4,4,0,0,0-4420.5,1609Z" transform="translate(4435.5 -1598)" fill="#333"/>
</svg>
